<svg width="88" height="88" viewBox="0 0 88 88" fill="none" xmlns="http://www.w3.org/2000/svg">
<circle cx="44" cy="44" r="44" fill="#E9E5F3"/>
<path d="M28 68C27.2927 68 26.6145 67.7189 26.1144 67.2189C25.6143 66.7189 25.3333 66.0405 25.3333 65.3333C25.3333 60.3827 27.3 55.6347 30.8006 52.1341C34.3013 48.6333 39.0493 46.6667 44 46.6667C48.9506 46.6667 53.6986 48.6333 57.1992 52.1341C60.7 55.6347 62.6666 60.3827 62.6666 65.3333C62.6666 66.0405 62.3856 66.7189 61.8856 67.2189C61.3856 67.7189 60.7072 68 60 68H28ZM33.3333 30.6667C33.3333 28.557 33.9589 26.4947 35.131 24.7406C36.303 22.9865 37.9689 21.6193 39.9181 20.8119C41.8672 20.0046 44.0117 19.7934 46.081 20.205C48.1501 20.6165 50.0506 21.6324 51.5424 23.1242C53.0341 24.6159 54.0501 26.5166 54.4616 28.5857C54.8733 30.6548 54.6621 32.7995 53.8546 34.7486C53.0474 36.6977 51.6802 38.3636 49.9261 39.5357C48.172 40.7077 46.1096 41.3333 44 41.3333C41.1709 41.3333 38.4579 40.2096 36.4575 38.2091C34.4571 36.2087 33.3333 33.4957 33.3333 30.6667Z" fill="#8763C4"/>
</svg>
