<svg width="409" height="42" viewBox="0 0 409 42" fill="none" xmlns="http://www.w3.org/2000/svg">
<g clip-path="url(#clip0_840_2255)">
<path d="M0 41.3511L8.32259 2.27637H24.8989C27.4462 2.27637 29.6722 2.53605 31.5845 3.04778C33.4969 3.55951 35.0727 4.41494 36.3272 5.59879C37.5817 6.79028 38.5226 8.34838 39.1651 10.2731C39.8 12.2054 40.1213 14.5579 40.1213 17.3457C40.1213 20.3396 39.7388 23.2725 38.9815 26.1443C38.2242 29.0161 36.9544 31.5824 35.195 33.8356C33.428 36.0887 31.1179 37.9065 28.2647 39.2813C25.4114 40.6561 21.885 41.3435 17.6931 41.3435H0V41.3511ZM16.8823 37.0434C18.2363 37.0434 19.4372 36.4782 20.4852 35.3478C21.5332 34.2174 22.4358 32.7815 23.1931 31.0401C23.9504 29.2987 24.5929 27.3664 25.1054 25.2584C25.618 23.1427 26.031 21.1034 26.337 19.1329C26.643 17.1623 26.8725 15.398 27.0178 13.8399C27.1631 12.2818 27.232 11.1743 27.232 10.5175C27.232 9.24964 26.9719 8.24909 26.4594 7.53114C25.9469 6.81319 25.0519 6.45422 23.7821 6.45422H20.8218L14.228 37.0358H16.8747L16.8823 37.0434Z" fill="white"/>
<path d="M45.7905 14.8938H55.8342L56.7598 19.507H57.1881C58.129 18.0329 59.3453 16.7803 60.8216 15.7569C62.2979 14.7334 64.2486 14.2217 66.6734 14.2217C66.8341 14.2217 67.0941 14.2293 67.446 14.2522C67.7979 14.2751 68.188 14.3362 68.6164 14.4355C69.0447 14.5348 69.4961 14.6799 69.9703 14.8632C70.4446 15.0466 70.9036 15.3062 71.3549 15.6347L68.647 28.3133H61.9308C61.8466 25.77 61.6248 23.998 61.25 22.9898C60.8828 21.9816 60.2861 21.4852 59.46 21.4852C59.0469 21.4852 58.6033 21.5768 58.1367 21.7601C57.6624 21.9434 57.1805 22.3482 56.6909 22.9593L52.7438 41.3586H40.1758L45.7828 14.9014L45.7905 14.8938Z" fill="white"/>
<path d="M93.544 14.8934H106.112L100.444 41.3506H90.4613L89.3521 37.4095H88.985C87.9141 38.685 86.4683 39.739 84.6401 40.5791C82.8119 41.4193 80.976 41.8394 79.1249 41.8394C76.6617 41.8394 74.7264 41.2131 73.3342 39.9605C71.9344 38.7079 71.2383 37.081 71.2383 35.0723C71.2383 34.0489 71.4142 32.7657 71.7584 31.2229C72.1103 29.6877 72.4239 28.2365 72.7146 26.8847L75.3001 14.8857H87.807L84.7242 29.2829C84.6401 29.6113 84.556 30.0009 84.4795 30.4515C84.3953 30.9021 84.3112 31.3451 84.2347 31.7728C84.1505 32.2005 84.0817 32.613 84.0205 33.0025C83.9593 33.392 83.9287 33.7128 83.9287 33.9572C83.9287 34.5759 84.0587 35.0952 84.3265 35.5229C84.5942 35.9507 85.0761 36.1722 85.7722 36.1722C86.5142 36.1722 87.2103 35.9277 87.8682 35.4313C88.526 34.9425 89.0385 34.4689 89.4057 34.0183L93.5364 14.8857L93.544 14.8934Z" fill="white"/>
<path d="M123.124 18.8271C123.988 18.0098 124.952 17.2461 126.023 16.551C126.964 15.9782 128.096 15.4435 129.411 14.9547C130.727 14.4659 132.203 14.2139 133.848 14.2139C135.822 14.2139 137.29 14.6645 138.254 15.5657C139.218 16.467 139.761 17.5745 139.883 18.8882H140.251C141.191 18.0251 142.224 17.2461 143.333 16.551C144.274 15.9782 145.391 15.4435 146.661 14.9547C147.931 14.4659 149.292 14.2139 150.73 14.2139C152.865 14.2139 154.601 14.802 155.94 15.9705C157.271 17.1391 157.944 18.6438 157.944 20.4921C157.944 21.4392 157.783 22.6841 157.454 24.2422C157.125 25.8003 156.758 27.5036 156.345 29.3519L153.759 41.3508H141.62L144.947 25.2886C145.07 24.6699 145.192 24.0818 145.315 23.5014C145.437 22.9285 145.498 22.455 145.498 22.0884C145.498 21.5156 145.337 21.0344 145.009 20.6449C144.68 20.2553 144.205 20.0567 143.593 20.0567C142.813 20.0567 142.086 20.3317 141.406 20.8893C140.725 21.4468 140.205 21.9051 139.838 22.2717L135.829 41.3432H124.309L127.698 25.281C127.782 24.7463 127.881 24.204 128.004 23.6465C128.126 23.0966 128.187 22.5925 128.187 22.1419C128.187 21.5232 128.034 21.0267 127.728 20.6372C127.422 20.2477 126.956 20.0491 126.344 20.0491C125.602 20.0491 124.898 20.3164 124.217 20.8511C123.537 21.3857 123.016 21.8363 122.649 22.203L118.58 41.3355H106.012L111.619 14.8784H121.662L122.772 18.8194H123.139L123.124 18.8271Z" fill="white"/>
<path d="M209.83 11.5715C209.83 13.9927 209.149 16.2305 207.795 18.2775C206.441 20.332 204.2 21.8901 201.079 22.9518L208.231 41.3511H194.485L189.062 24.3036H188.381L184.748 41.3511H171.438L179.76 2.27637H195.969C197.859 2.27637 199.649 2.39093 201.332 2.61243C203.014 2.84156 204.483 3.29219 205.738 3.96431C206.992 4.64407 207.986 5.58351 208.728 6.79792C209.47 8.00468 209.838 9.60097 209.838 11.5639L209.83 11.5715ZM192.083 20.3702C193.154 20.3702 194.065 20.0112 194.822 19.2933C195.579 18.5753 196.199 17.7046 196.673 16.6812C197.147 15.6577 197.484 14.5579 197.69 13.3893C197.897 12.2207 197.996 11.2049 197.996 10.3418C197.996 9.27255 197.813 8.36366 197.438 7.60752C197.071 6.85138 196.268 6.46949 195.036 6.46949H192.259L189.177 20.3778H192.076L192.083 20.3702Z" fill="white"/>
<path d="M267.759 14.8934H280.327L274.659 41.3506H264.676L263.567 37.4095H263.2C262.129 38.685 260.683 39.739 258.855 40.5791C257.027 41.4193 255.191 41.8394 253.34 41.8394C250.877 41.8394 248.941 41.2131 247.549 39.9605C246.149 38.7079 245.453 37.081 245.453 35.0723C245.453 34.0489 245.629 32.7657 245.981 31.2229C246.333 29.6877 246.646 28.2365 246.937 26.8847L249.523 14.8857H262.029L258.947 29.2829C258.863 29.6113 258.778 30.0009 258.702 30.4515C258.618 30.9021 258.534 31.3451 258.457 31.7728C258.373 32.2005 258.304 32.613 258.243 33.0025C258.182 33.392 258.151 33.7128 258.151 33.9572C258.151 34.5759 258.281 35.0952 258.549 35.5229C258.817 35.9507 259.299 36.1722 259.995 36.1722C260.737 36.1722 261.433 35.9277 262.091 35.4313C262.748 34.9425 263.261 34.4689 263.628 34.0183L267.759 14.8857V14.8934Z" fill="white"/>
<path d="M292.775 41.3508H280.207L288.958 0H301.595L292.783 41.3508H292.775Z" fill="white"/>
<path d="M312.31 28.9773C312.142 29.8785 312.035 30.7416 311.974 31.5589C311.912 32.3761 311.882 33.117 311.882 33.7738C311.882 34.1404 311.905 34.5529 311.943 35.0035C311.981 35.4541 312.073 35.8742 312.218 36.2637C312.364 36.6532 312.57 36.9817 312.838 37.249C313.106 37.5163 313.488 37.6461 313.978 37.6461C314.345 37.6461 314.766 37.5239 315.24 37.2795C315.714 37.0351 316.188 36.6838 316.655 36.2332C317.129 35.7825 317.581 35.225 318.009 34.5681C318.437 33.9113 318.782 33.1704 319.026 32.3532H329.131L327.533 38.9369C326.706 39.4716 325.766 39.9222 324.695 40.2888C323.624 40.6554 322.499 40.9533 321.306 41.1824C320.113 41.4039 318.904 41.5719 317.672 41.6712C316.441 41.7705 315.271 41.824 314.161 41.824C312.104 41.824 310.199 41.6407 308.432 41.2664C306.665 40.8998 305.127 40.2583 303.812 39.357C302.496 38.4557 301.456 37.2566 300.698 35.7596C299.933 34.2626 299.559 32.4066 299.559 30.1917C299.559 28.183 299.88 26.2124 300.515 24.2877C301.15 22.363 302.221 20.6445 303.72 19.1475C305.219 17.6505 307.231 16.4514 309.755 15.5501C312.28 14.6489 315.431 14.1982 319.218 14.1982C323.325 14.1982 326.416 14.8322 328.489 16.1077C330.562 17.3832 331.602 19.369 331.602 22.0728C331.602 23.1802 331.434 24.3794 331.113 25.6701C330.784 26.9609 330.286 28.0608 329.636 28.962H312.318L312.31 28.9773ZM320.503 21.6527C320.503 20.3848 320.296 19.5218 319.883 19.0711C319.47 18.6205 318.981 18.3914 318.407 18.3914C317.749 18.3914 317.145 18.6052 316.586 19.0406C316.035 19.4683 315.531 20.0488 315.079 20.7667C314.628 21.4847 314.215 22.3019 313.848 23.2261C313.481 24.1502 313.167 25.1202 312.922 26.1513H319.944C320.029 25.6625 320.105 25.1431 320.189 24.6161C320.273 24.1655 320.342 23.6767 320.403 23.142C320.465 22.6074 320.495 22.1186 320.495 21.668L320.503 21.6527Z" fill="white"/>
<path d="M349.105 31.0088C348.899 31.9559 348.738 32.796 348.616 33.5292C348.493 34.2625 348.432 34.8429 348.432 35.2554C348.432 36.0803 348.73 36.592 349.327 36.7906C349.924 36.9968 351.041 37.0961 352.685 37.0961L351.76 41.3427C351.469 41.4267 351.033 41.4878 350.436 41.526C349.84 41.5642 349.182 41.6176 348.463 41.6787C347.744 41.7398 347.002 41.778 346.244 41.8009C345.487 41.8238 344.814 41.8315 344.24 41.8315C343.215 41.8315 342.205 41.7627 341.219 41.6176C340.232 41.4725 339.352 41.1899 338.572 40.7546C337.792 40.3192 337.164 39.7006 336.69 38.8757C336.216 38.0584 335.979 36.951 335.979 35.5532C335.979 35.0644 336.009 34.4458 336.071 33.7049C336.132 32.9641 336.262 32.1468 336.468 31.2456L339.054 19.0022H334.25L335.114 14.8779C336.637 14.5494 337.968 14.1828 339.123 13.7704C340.27 13.3579 341.333 12.8462 342.297 12.2352C343.261 11.6242 344.187 10.8604 345.074 9.95914C345.954 9.05789 346.91 7.95041 347.942 6.63672H354.292L352.502 14.8779H355.523C357.084 14.8779 358.438 14.6945 359.593 14.3279C360.74 13.9613 361.788 13.4267 362.737 12.7316C363.685 12.0366 364.595 11.1735 365.475 10.1501C366.355 9.12663 367.311 7.95805 368.344 6.64436H374.693L372.903 14.8855H377.706L376.903 19.0099H372.038L369.514 31.0088C369.307 31.9559 369.147 32.796 369.024 33.5292C368.902 34.2625 368.841 34.8429 368.841 35.2554C368.841 36.0803 369.139 36.592 369.736 36.7906C370.332 36.9968 371.449 37.0961 373.094 37.0961L372.168 41.3427C371.878 41.4267 371.442 41.4878 370.845 41.526C370.248 41.5642 369.59 41.6176 368.871 41.6787C368.152 41.7398 367.41 41.778 366.653 41.8009C365.896 41.8238 365.223 41.8315 364.649 41.8315C363.624 41.8315 362.614 41.7627 361.627 41.6176C360.641 41.4725 359.753 41.1899 358.981 40.7546C358.2 40.3268 357.573 39.7006 357.099 38.8757C356.625 38.0584 356.387 36.951 356.387 35.5532C356.387 35.0644 356.418 34.4458 356.479 33.7049C356.54 32.9641 356.671 32.1468 356.877 31.2456L359.463 19.0022H351.637L349.113 31.0012L349.105 31.0088Z" fill="white"/>
<path d="M389.716 28.9773C389.548 29.8785 389.441 30.7416 389.38 31.5589C389.319 32.3761 389.288 33.117 389.288 33.7738C389.288 34.1404 389.311 34.5529 389.349 35.0035C389.388 35.4541 389.479 35.8742 389.625 36.2637C389.77 36.6532 389.977 36.9817 390.244 37.249C390.512 37.5163 390.894 37.6461 391.384 37.6461C391.751 37.6461 392.172 37.5239 392.646 37.2795C393.12 37.0351 393.595 36.6838 394.061 36.2332C394.536 35.7825 394.987 35.225 395.415 34.5681C395.844 33.9113 396.188 33.1704 396.433 32.3532H406.538L404.939 38.9369C404.113 39.4716 403.172 39.9222 402.101 40.2888C401.03 40.6554 399.905 40.9533 398.712 41.1824C397.519 41.4039 396.31 41.5719 395.079 41.6712C393.847 41.7705 392.677 41.824 391.568 41.824C389.51 41.824 387.605 41.6407 385.838 41.2664C384.071 40.8998 382.534 40.2583 381.218 39.357C379.902 38.4557 378.862 37.2566 378.105 35.7596C377.34 34.2626 376.965 32.4066 376.965 30.1917C376.965 28.183 377.286 26.2124 377.921 24.2877C378.556 22.363 379.627 20.6445 381.126 19.1475C382.625 17.6505 384.637 16.4514 387.162 15.5501C389.686 14.6489 392.837 14.1982 396.624 14.1982C400.732 14.1982 403.822 14.8322 405.895 16.1077C407.968 17.3832 409.008 19.369 409.008 22.0728C409.008 23.1802 408.84 24.3794 408.519 25.6701C408.19 26.9609 407.693 28.0608 407.042 28.962H389.724L389.716 28.9773ZM397.909 21.6527C397.909 20.3848 397.702 19.5218 397.289 19.0711C396.876 18.6205 396.387 18.3914 395.813 18.3914C395.155 18.3914 394.551 18.6052 393.992 19.0406C393.442 19.4683 392.937 20.0488 392.486 20.7667C392.034 21.4847 391.621 22.3019 391.254 23.2261C390.887 24.1502 390.573 25.1202 390.328 26.1513H397.351C397.435 25.6625 397.511 25.1431 397.595 24.6161C397.68 24.1655 397.748 23.6767 397.81 23.142C397.871 22.6074 397.901 22.1186 397.901 21.668L397.909 21.6527Z" fill="white"/>
<path d="M241.493 25.0675C241.493 32.6289 235.343 38.762 227.762 38.762C220.181 38.762 214.031 32.6289 214.031 25.0675C214.031 17.5062 220.181 11.373 227.762 11.373C235.343 11.373 241.493 17.5062 241.493 25.0675Z" stroke="white" stroke-miterlimit="10"/>
<path d="M243.357 25.1056C243.357 33.6599 236.404 40.5949 227.829 40.5949C219.254 40.5949 212.301 33.6599 212.301 25.1056C212.301 16.5513 219.254 9.61621 227.829 9.61621C236.404 9.61621 243.357 16.5513 243.357 25.1056Z" stroke="white" stroke-miterlimit="10"/>
<path d="M227.778 28.9237C229.874 28.9237 231.573 27.2281 231.573 25.143C231.573 23.0579 229.874 21.3623 227.778 21.3623C225.683 21.3623 223.984 23.0579 223.984 25.143C223.984 27.2281 225.683 28.9237 227.778 28.9237Z" fill="white"/>
<path d="M211.278 25.739C211.554 25.739 211.776 25.464 211.776 25.1356C211.776 24.8072 211.554 24.5322 211.278 24.5322C211.003 24.5322 210.781 24.8072 210.781 25.1356C210.781 25.464 211.003 25.739 211.278 25.739Z" fill="white"/>
<path d="M215.721 13.7322C215.942 13.9002 216.287 13.8086 216.485 13.5412C216.684 13.2739 216.669 12.9226 216.447 12.7546C216.225 12.5865 215.881 12.6782 215.682 12.9455C215.483 13.2128 215.499 13.5642 215.721 13.7322Z" fill="white"/>
<path d="M228.373 8.58532C228.373 8.31036 228.097 8.08887 227.761 8.08887C227.424 8.08887 227.156 8.31036 227.156 8.59296C227.156 8.87556 227.432 9.08941 227.768 9.08941C228.105 9.08941 228.373 8.86792 228.373 8.58532Z" fill="white"/>
<path d="M239.725 13.8853C239.955 13.7326 239.993 13.3889 239.809 13.1063C239.626 12.8237 239.289 12.7167 239.06 12.8695C238.83 13.0223 238.792 13.366 238.976 13.6486C239.159 13.9312 239.496 14.0381 239.725 13.8853Z" fill="white"/>
<path d="M244.47 25.6091C244.745 25.6091 244.967 25.3342 244.967 25.0057C244.967 24.6773 244.745 24.4023 244.47 24.4023C244.194 24.4023 243.973 24.6773 243.973 25.0057C243.973 25.3342 244.194 25.6091 244.47 25.6091Z" fill="white"/>
<path d="M239.169 37.2261C239.399 37.3789 239.735 37.2796 239.919 36.997C240.102 36.7144 240.064 36.3707 239.835 36.218C239.605 36.0652 239.269 36.1645 239.085 36.4471C238.901 36.7297 238.94 37.0734 239.169 37.2261Z" fill="white"/>
<path d="M228.38 41.488C228.38 41.2131 228.097 40.9916 227.761 40.9992C227.424 41.0069 227.157 41.236 227.164 41.5109C227.172 41.7859 227.447 42.0074 227.784 41.9998C228.12 41.9921 228.388 41.763 228.38 41.488Z" fill="white"/>
<path d="M216.609 37.3338C216.808 37.1428 216.793 36.7915 216.563 36.5471C216.334 36.3027 215.982 36.2568 215.783 36.4401C215.584 36.6235 215.599 36.9824 215.829 37.2268C216.058 37.4712 216.41 37.5171 216.609 37.3338Z" fill="white"/>
</g>
<defs>
<clipPath id="clip0_840_2255">
<rect width="409" height="42" fill="white"/>
</clipPath>
</defs>
</svg>
